<svg xmlns="http://www.w3.org/2000/svg" xmlns:xlink="http://www.w3.org/1999/xlink" viewBox="0 0 120 30" overflow="visible"><g><path d="M 46.817 4.305 L 42.469 4.305 L 42.469 4.794 L 43.421 5.763 L 37.794 22.968 L 35.665 25.136 L 35.665 25.703 L 40.952 25.708 L 40.952 25.133 L 38.775 22.918 L 39.826 19.624 L 48.489 19.624 L 49.864 23.879 L 48.627 25.138 L 48.632 25.703 L 54.646 25.703 L 54.646 25.133 L 53.055 23.515 L 46.816 4.305 Z M 40.154 18.652 L 44.158 6.403 L 48.161 18.652 Z M 65.969 15.635 L 68.931 12.606 C 68.154 11.511 66.01 9.168 62.664 9.168 C 57.824 9.168 55.076 12.998 55.076 17.679 C 55.076 22.36 57.854 26.189 62.246 26.189 C 67.029 26.189 68.697 21.506 68.915 20.422 L 68.236 20.178 C 64.224 26.021 58.413 24.142 58.003 17.679 C 57.735 13.302 59.886 10.146 62.963 10.141 C 64.98 10.138 66.574 12.241 65.68 15.334 L 65.969 15.635 Z M 96.417 24.578 L 96.417 9.654 L 93.041 9.654 L 93.041 10.136 L 93.549 10.652 L 93.549 21.812 C 93.34 22.572 91.01 24.426 89.396 24.487 C 87.126 24.578 85.901 23.332 85.901 20.445 L 85.901 9.655 L 82.522 9.655 L 82.525 10.136 L 83.033 10.666 L 83.033 19.594 C 83.033 24.761 85.064 26.189 88.052 26.189 C 90.502 26.189 92.384 24.305 93.549 22.816 L 93.549 25.703 L 96.964 25.703 L 96.962 25.133 L 96.417 24.578 Z M 112.612 23.271 L 112.612 16.706 C 112.612 11.235 110.789 9.168 106.338 9.168 C 103.111 9.168 101.084 10.803 99.978 11.989 L 102.33 14.403 L 102.641 14.094 C 102.374 12.415 103.608 10.187 106.039 10.141 C 108.309 10.098 109.587 12.489 109.654 14.384 C 107.413 17.575 99.227 14.854 99.227 21.569 C 99.227 24.274 101.378 26.189 104.187 26.189 C 106.637 26.189 108.937 24.122 109.744 21.812 L 109.744 23.332 C 109.744 24.882 110.521 26.189 112.074 26.189 C 113.12 26.189 113.956 25.612 114.524 24.609 L 114.32 24.386 C 113.467 24.734 112.612 24.615 112.612 23.271 Z M 109.744 19.563 C 109.744 24.609 102.476 26.064 102.095 21.539 C 101.662 16.386 107.861 18 109.714 15.052 C 109.744 15.751 109.744 16.645 109.744 17.314 L 109.744 19.563 Z M 78.615 4.384 L 76.001 1.734 C 76.35 6.262 73.337 9.662 69.991 9.662 L 69.991 10.635 L 72.859 10.635 L 72.859 21.759 C 72.859 25.133 74.532 26.197 76.324 26.197 C 77.938 26.197 79.221 25.051 80.029 23.567 L 79.391 23.227 C 78.267 24.616 75.727 24.604 75.727 22.003 L 75.727 10.635 L 80.029 10.635 L 80.029 9.662 L 73.157 9.662 C 76.928 9.662 78.615 5.777 78.615 4.384 Z M 119.422 24.578 L 119.422 2.34 L 116.068 3.32 L 116.068 3.816 L 116.554 4.308 L 116.554 24.578 L 116.01 25.132 L 116.01 25.703 L 120 25.703 L 119.994 25.137 Z" fill="rgb(0,0,0)"></path><g><defs><linearGradient id="idsn5KMQChg9_3g-1395855615" x1="0.49751243781094523" x2="0.5037313432835822" y1="0" y2="1.25"><stop offset="0" stop-color="rgb(204, 255, 0)" stop-opacity="1"></stop><stop offset="1" stop-color="rgb(160, 209, 0)" stop-opacity="1"></stop></linearGradient></defs><path d="M 7.368 30 C 3.299 30 0 26.644 0 22.504 L 0 7.496 C 0 3.356 3.299 0 7.368 0 L 22.12 0 C 26.189 0 29.488 3.356 29.488 7.496 L 29.488 22.504 C 29.488 26.644 26.189 30 22.12 30 Z" fill="url(#idsn5KMQChg9_3g-1395855615)"></path></g><path d="M 11.104 19.279 L 12.923 16.074 L 15.954 10.732 L 18.38 6.459 L 17.167 4.322 L 12.317 4.322 L 11.104 6.459 L 13.529 10.732 L 8.679 19.279 L 3.829 19.279 L 2.616 21.415 L 5.041 25.689 L 7.466 25.689 L 9.891 21.415 L 11.104 19.279 Z M 15.954 6.459 L 14.742 8.595 L 13.529 6.459 Z M 6.254 23.552 L 5.041 21.415 L 7.466 21.415 Z M 25.655 19.279 L 22.017 19.279 L 23.23 21.415 L 24.442 21.415 L 23.23 23.552 L 22.017 21.415 L 20.805 19.279 L 16.561 11.8 L 15.348 13.937 L 18.38 19.279 L 12.317 19.279 L 11.104 21.415 L 19.592 21.415 L 22.017 25.689 L 24.442 25.689 L 26.868 21.415 Z" fill="rgb(0,0,0)"></path></g></svg>