<?xml version="1.0" encoding="UTF-8"?>
<svg xmlns="http://www.w3.org/2000/svg" fill="none" viewBox="13 11.77 190.92 57.85">
  <path d="M66.0969 57.6757L84.7701 16.054H92.3579L111.09 57.6757H103.028L86.9634 20.1568H90.046L74.0404 57.6757H66.0969ZM74.6925 48.0432L76.7673 41.9784H99.175L101.25 48.0432H74.6925ZM129.712 69.627C126.788 69.627 123.923 69.2304 121.117 68.4378C118.35 67.6845 116.078 66.575 114.3 65.1081L117.619 59.5189C119.002 60.6683 120.742 61.5804 122.836 62.254C124.97 62.9676 127.124 63.3243 129.297 63.3243C132.775 63.3243 135.324 62.5115 136.945 60.8865C138.565 59.3009 139.375 56.9027 139.375 53.6919V48.0432L139.968 40.8486L139.731 33.654V25.9243H146.785V52.8595C146.785 58.6072 145.323 62.829 142.398 65.5243C139.474 68.2594 135.245 69.627 129.712 69.627ZM128.764 56.2486C125.76 56.2486 123.033 55.6144 120.583 54.3459C118.172 53.0378 116.256 51.2342 114.833 48.9351C113.45 46.636 112.758 43.9405 112.758 40.8486C112.758 37.7964 113.45 35.1207 114.833 32.8216C116.256 30.5225 118.172 28.7387 120.583 27.4703C123.033 26.2018 125.76 25.5676 128.764 25.5676C131.451 25.5676 133.862 26.1027 135.996 27.173C138.13 28.2432 139.83 29.9081 141.094 32.1676C142.398 34.427 143.05 37.3207 143.05 40.8486C143.05 44.3765 142.398 47.2901 141.094 49.5892C139.83 51.8486 138.13 53.5333 135.996 54.6432C133.862 55.7135 131.451 56.2486 128.764 56.2486ZM129.89 49.9459C131.748 49.9459 133.407 49.5694 134.87 48.8162C136.332 48.0234 137.459 46.9532 138.249 45.6054C139.079 44.218 139.494 42.6324 139.494 40.8486C139.494 39.0649 139.079 37.4991 138.249 36.1513C137.459 34.764 136.332 33.7135 134.87 33C133.407 32.2468 131.748 31.8703 129.89 31.8703C128.033 31.8703 126.353 32.2468 124.851 33C123.389 33.7135 122.243 34.764 121.413 36.1513C120.623 37.4991 120.228 39.0649 120.228 40.8486C120.228 42.6324 120.623 44.218 121.413 45.6054C122.243 46.9532 123.389 48.0234 124.851 48.8162C126.353 49.5694 128.033 49.9459 129.89 49.9459Z" fill="white"></path>
  <path d="M156.527 57.6757V25.9243H163.937V57.6757H156.527ZM160.262 20.6919C158.878 20.6919 157.732 20.2559 156.823 19.3838C155.954 18.5117 155.519 17.4613 155.519 16.2324C155.519 14.964 155.954 13.9135 156.823 13.0811C157.732 12.209 158.878 11.773 160.262 11.773C161.645 11.773 162.771 12.1892 163.641 13.0216C164.549 13.8144 165.004 14.8252 165.004 16.0541C165.004 17.3622 164.569 18.4721 163.7 19.3838C162.83 20.2559 161.684 20.6919 160.262 20.6919Z" fill="white"></path>
  <path d="M198.608 34.6902C196.782 33.4487 194.453 32.8837 192.191 32.6789L192.349 32.6665L202.241 20.6363L193.78 21.0585L183.736 33.2004V38.5016C183.736 38.5016 189.086 38.5637 190.62 38.5885C192.155 38.6133 194.854 40.4321 195.751 42.3503C196.655 44.2684 196.03 46.6087 195.126 48.0302C194.222 49.4517 192.282 50.7987 186.108 50.867C179.934 50.9353 175.761 46.8942 175.761 46.8942L172.504 52.9093C172.504 52.9093 173.766 55.4854 182.936 57.3166C192.106 59.1478 200.749 55.6282 202.896 49.7558C205.036 43.8959 203.933 38.3092 198.608 34.6902Z" fill="white"></path>
  <path d="M174.481 15.4595V21.9463H192.985L202.235 20.6365V15.4595H174.481Z" fill="white"></path>
  <path d="M36.0054 58.0009C48.7105 58.0009 59.01 47.7032 59.01 35.0004C59.01 22.2977 48.7105 12 36.0054 12C23.3003 12 13.0009 22.2977 13.0009 35.0004C13.0009 47.7032 23.3003 58.0009 36.0054 58.0009Z" fill="url(#paint0_linear_349_16)"></path>
  <path d="M27.3879 27.9002C28.0899 26.8669 28.8601 25.8604 29.7961 25.027C30.5078 24.3934 31.3268 23.7866 32.2725 23.577C33.1793 23.3771 34.298 23.5697 35.0561 24.1131C35.9945 24.7857 36.6648 25.8215 37.3473 26.7353C37.708 27.2203 38.0493 27.7174 38.3905 28.217C40.4331 31.2097 42.3928 34.2584 44.3696 37.2949C45.286 38.7449 46.3512 40.1242 47.0166 41.7132C47.5309 42.9389 47.7625 44.506 46.7924 45.5807C46.7607 45.6148 46.729 45.6489 46.6973 45.6806C46.6973 45.6806 45.6078 46.7748 43.9333 46.7748C42.2563 46.7748 38.3223 46.7748 38.3223 46.7748C39.6701 46.7041 41.7956 46.3337 42.1101 44.7351C42.3806 43.3606 41.6664 42.0373 40.945 40.9236C40.1333 39.6685 39.3411 38.3988 38.549 37.1291C37.3522 35.2112 36.1529 33.2933 34.9561 31.3754C34.3468 30.3981 33.7423 29.416 33.0623 28.4851C32.4602 27.659 31.7607 26.4405 30.6394 26.3868C29.528 26.3332 28.6164 27.1131 27.9193 27.8904C27.5585 28.2926 26.0376 30.0009 25.7061 30.5151C26.2399 29.6866 26.7883 28.7824 27.3879 27.9002Z" fill="url(#paint1_linear_349_16)"></path>
  <path d="M38.3222 46.7744C38.3222 46.7744 28.3896 46.8086 28.5846 46.7866C29.0818 46.7305 29.6961 46.6282 30.5979 46.3821L40.4062 46.4015C39.9504 46.5478 40.1698 46.4796 39.4434 46.6501C39.1997 46.7062 38.639 46.7525 38.3222 46.7744Z" fill="url(#paint2_linear_349_16)"></path>
  <path opacity="0.48" d="M29.0454 46.1629L30.018 45.0102C30.018 45.0102 31.9606 42.3392 31.6584 39.544C31.3537 36.7512 30.2081 34.5165 29.6719 33.5051C29.1235 32.4742 28.6213 31.7115 28.6213 31.7115C27.5879 32.986 25.889 35.9616 25.889 35.9616C22.8519 42.2758 28.2582 46.5601 28.2582 46.5601L28.519 46.7867L29.0454 46.1629Z" fill="url(#paint3_linear_349_16)"></path>
  <path opacity="0.8" d="M28.4117 46.148C28.4117 46.148 27.895 42.6534 30.7712 39.8557C30.7712 39.8557 32.7723 37.9719 36.37 37.4138C36.37 37.4138 36.1213 38.9175 35.8776 39.7826C35.3316 41.7151 34.4932 43.9474 32.8552 45.2366C31.7413 46.1139 30.3422 46.5477 28.9528 46.7402C28.8114 46.7597 28.6701 46.7792 28.5287 46.7889L28.4117 46.148Z" fill="url(#paint4_radial_349_16)"></path>
  <defs>
    <linearGradient id="paint0_linear_349_16" x1="22.9056" y1="32.7643" x2="36.0017" y2="58.0028" gradientUnits="userSpaceOnUse">
      <stop stop-color="#01B4EF"></stop>
      <stop offset="0.76512" stop-color="#0182C5"></stop>
    </linearGradient>
    <linearGradient id="paint1_linear_349_16" x1="38.5965" y1="40.4928" x2="46.4803" y2="36.3178" gradientUnits="userSpaceOnUse">
      <stop offset="0.1097" stop-color="white"></stop>
      <stop offset="0.6137" stop-color="white" stop-opacity="0.9"></stop>
      <stop offset="0.9811" stop-color="white" stop-opacity="0.7"></stop>
    </linearGradient>
    <linearGradient id="paint2_linear_349_16" x1="28.3386" y1="46.646" x2="28.3624" y2="47.2" gradientUnits="userSpaceOnUse">
      <stop offset="0.1093" stop-color="white" stop-opacity="0.2"></stop>
      <stop offset="1" stop-color="white"></stop>
    </linearGradient>
    <linearGradient id="paint3_linear_349_16" x1="32.3977" y1="44.5107" x2="25.3522" y2="37.6839" gradientUnits="userSpaceOnUse">
      <stop offset="0.482" stop-color="white" stop-opacity="0.9"></stop>
      <stop offset="0.9807" stop-color="white" stop-opacity="0.5"></stop>
    </linearGradient>
    <radialGradient id="paint4_radial_349_16" cx="0" cy="0" r="1" gradientUnits="userSpaceOnUse" gradientTransform="translate(27.2303 47.5047) scale(13.0288 15.2792)">
      <stop offset="0.7502" stop-color="white" stop-opacity="0.9"></stop>
      <stop offset="0.9807" stop-color="white" stop-opacity="0.5"></stop>
    </radialGradient>
  </defs>
</svg>
