<?xml version="1.0" encoding="utf-8"?>
<!-- Generator: Adobe Illustrator 19.0.0, SVG Export Plug-In . SVG Version: 6.00 Build 0)  -->
<svg version="1.1" id="Layer_2_1_" xmlns="http://www.w3.org/2000/svg" xmlns:xlink="http://www.w3.org/1999/xlink" x="0px" y="0px"
	 viewBox="-219 252 519.8 57" style="enable-background:new -219 252 519.8 57;" xml:space="preserve">
<g>
	<g>
		<g>
			<polygon points="-178.2,271.9 -178.1,293.6 -199.8,293.8 -200.8,294.8 -177.1,294.6 -177.2,270.9 			"/>
			<path d="M-177,266l-1.2,1.2l-26.4,0.2l0.2,26.4h0v0l-0.7,0.7c-4.6,4.8-9.3,9.6-13.8,14.5c4.8-4.6,9.6-9.3,14.3-14l0.2-0.3l0,0h0
				l1-1l3.3-3.4l9.6-9.6l8-8.1l4.3-4.4l1-1l0,0l0,0l0.8-0.8c4.6-4.8,9.3-9.6,13.8-14.5C-167.5,256.6-172.3,261.3-177,266z"/>
		</g>
		<rect x="-80.2" y="267.6" width="1.9" height="27"/>
		<path d="M-27.7,267.6h-2.4c-3,3.9-6,7.9-9.1,11.8l-9.1-11.8h-2.4c3.2,4.2,7.1,9.2,10.3,13.4l-10.5,13.6h2.4l9.3-12.1l9.3,12.1h2.4
			L-38,280.9L-27.7,267.6z"/>
		<polygon points="284,269.4 300.4,269.4 300.4,267.6 282.1,267.6 282.1,267.6 284,269.4 		"/>
		<polygon points="299,292.7 284,292.7 284,282.5 296.9,282.5 296.9,280.7 284,280.7 282.1,280.7 282.1,294.6 300.8,294.6 		"/>
		<polygon points="47.1,267.6 45.2,267.6 45.2,294.6 64.5,294.6 64.5,292.7 47.1,292.7 		"/>
		<path d="M102.6,293c-5.2,0-11.5-4.3-11.5-12c0-7.2,5.8-12,11.3-12c3.9,0,6.9,1.4,9.6,3.7l1.2-1.5c-3-2.5-6.4-4.1-10.8-4.1
			c-6.5,0-13.3,5.5-13.3,13.8c0,8.9,7.3,13.8,13.4,13.8c5,0,8.7-2.2,11.2-4.4l-1.3-1.4C110.3,291.1,107,293,102.6,293z"/>
		<path d="M199.4,283.7c3.4,0,7.5-3.6,7.5-8c0-5.2-4.5-8.1-7.8-8.1h-10.8v27h1.9v-10.9h6.6l7.8,10.9h2.5l-7.9-10.9H199.4z
			 M190.1,281.8v-12.4h8.9c2.4,0,5.8,2.3,5.8,6.2c0,3.4-3.1,6.2-5.5,6.2H190.1z"/>
		<polygon points="243.5,291.3 233.8,267.6 231.7,267.6 242.7,294.6 244.1,294.6 255.3,267.6 253.2,267.6 		"/>
		<polygon points="1.3,269.4 17.7,269.4 17.7,267.6 -0.6,267.6 -0.6,267.6 1.3,269.4 		"/>
		<polygon points="1.3,292.7 1.3,282.5 14.2,282.5 14.2,280.7 1.3,280.7 -0.6,280.7 -0.6,294.6 18.1,294.6 16.3,292.7 		"/>
		<path d="M149,267.5l-10.9,27.1h2.1c0.8-2.2,2-5,2.9-7.2h0l1.2-3l0,0l5.5-13.6l5.3,13.3l0,0l1.3,3.3h0l2.9,7.2h2.1l-10.9-27.1H149z
			"/>
		<g>
			<path d="M-117.1,267.6h-9.9l2,1.9h7.9c2.5,0,6.7,1.9,6.7,6.7c0,4-4.4,6.6-6.7,6.6h-6.8h-1.2h-1.9l0,11.9h1.9v-10h8
				c3.2,0,8.7-3.2,8.7-8.4C-108.4,269.9-113.9,267.6-117.1,267.6z"/>
		</g>
	</g>
</g>
</svg>
