<?xml version="1.0" encoding="UTF-8"?>
<svg class="hidden" xmlns="http://www.w3.org/2000/svg" xmlns:xlink="http://www.w3.org/1999/xlink" xml:space="preserve">
  <defs>
    <symbol id="Architecture" viewBox="-55 147 500 625" style="enable-background:new -55 147 500 500;">
      <title>Architecture - created by Serhii Smirnov from the Noun Project</title>
      <path d="M445,373.2c0-1.5-0.6-2.9-1.6-3.9l-71.2-70.9c-2.2-2.2-5.7-2.2-7.8,0l-84.4,84l-42.9-133.1c-2.8-18.5-17.8-33.1-36.5-35.6   v-36.2c0-3-2.5-5.5-5.5-5.5c-3.1,0-5.5,2.5-5.5,5.5v36.2c-17.7,2.3-32.1,15.5-35.9,32.7l-43.8,135.7l-84.1-83.7   c-1-1-2.4-1.6-3.9-1.6s-2.9,0.6-3.9,1.6l-71.4,70.9c-2.2,2.2-2.2,5.6,0,7.8l43.6,43.4l0,0l0,0l81.1,80.8l-32.2,99.8   c-0.9,2.7,0.5,5.6,3.1,6.8c0.7,0.3,1.5,0.5,2.2,0.5c2,0,3.8-1,4.9-2.9l45.1-81.2l96.7,96.3c1,1,2.4,1.6,3.9,1.6s2.9-0.6,3.9-1.6   l26.2-26.1l0,0l0,0l70.2-69.9l44.9,80.9c1,1.8,2.9,2.9,4.9,2.9c0.7,0,1.5-0.1,2.2-0.5c2.6-1.1,4-4,3.1-6.8l-32.1-99.5l80-79.6l0,0   l0,0l45-44.8C444.4,376,445,374.6,445,373.2z M195,224.4c17.3,0,31.5,14,31.5,31.3S212.4,287,195,287s-31.5-14-31.5-31.3   S177.7,224.4,195,224.4z M59.7,474l13.6-13.5c2.2-2.2,2.2-5.6,0-7.8c-2.2-2.2-5.7-2.2-7.8,0l-13.6,13.5L2,416.5L15.5,403   c2.2-2.2,2.2-5.6,0-7.8c-2.2-2.2-5.7-2.2-7.8,0l-13.6,13.5l-35.7-35.6L21.8,310l84.2,83.8l-30.8,95.5L59.7,474z M156.3,273.8   l32.2,58L67.1,550.4L156.3,273.8z M239.1,423L195,466.9l-44.3-44.1l44.2-79.5L239.1,423z M279,525.1l-13.6-13.5   c-2.2-2.2-5.7-2.2-7.8,0c-2.2,2.2-2.2,5.6,0,7.8l13.6,13.5l-49.9,49.7L207.7,569c-2.2-2.2-5.7-2.2-7.8,0c-2.2,2.2-2.2,5.6,0,7.8   l13.6,13.5L195,608.7l-19.9-19.8l13.6-13.5c2.2-2.2,2.2-5.6,0-7.8s-5.7-2.2-7.8,0l-13.6,13.5l-49.9-49.7l13.6-13.5   c2.2-2.2,2.2-5.6,0-7.8s-5.7-2.2-7.8,0l-13.6,13.5L100,514l45.1-81.3l46,45.8c2.2,2.2,5.7,2.2,7.8,0l45.8-45.6l45.1,81.3L279,525.1   z M181.1,295.7c4.4,1.5,9,2.3,13.9,2.3c16.9,0,31.5-9.8,38.4-24.1l89.1,276.4L181.1,295.7z M394.4,410.2l-13.6-13.5   c-2.2-2.2-5.7-2.2-7.8,0c-2.2,2.2-2.2,5.6,0,7.8l13.6,13.5l-49.9,49.7l-13.6-13.5c-2.2-2.2-5.7-2.2-7.8,0c-2.2,2.2-2.2,5.6,0,7.8   l13.6,13.5l-14.3,14.2l-30.8-95.5l84.5-84.1l63.4,63.1L394.4,410.2z"></path>
      <path d="M195,275.4c10.9,0,19.8-8.8,19.8-19.7c0-10.9-8.9-19.7-19.8-19.7c-10.9,0-19.8,8.8-19.8,19.7   C175.2,266.6,184.1,275.4,195,275.4z M195,247.1c4.8,0,8.7,3.9,8.7,8.6c0,4.8-3.9,8.6-8.7,8.6s-8.7-3.9-8.7-8.6   C186.3,250.9,190.2,247.1,195,247.1z"></path>
    </symbol>

    <symbol id="UserPhone" viewBox="0 0 109.5 185.83375">
      <title>User Phone - Created by corpus delicti from the Noun Project</title>
      <path d="M100.34,113.47l-18.119-22.39c-0.889-1.101-2.188-1.676-3.502-1.676c-0.99,0-1.986,0.327-2.822,1.004  c-0.004,0.001-0.004,0.001-0.004,0.001c-2.68,2.229-1.475,4.675-0.68,6.294l0.07,0.142c0.107,0.217,0.051,0.482-0.137,0.635  l-0.297,0.238c-0.095,0.076-0.211,0.117-0.334,0.117c-0.017,0-0.033,0-0.05-0.002c-0.137-0.016-0.262-0.084-0.352-0.191  c-0.888-1.099-2.191-1.668-3.505-1.668c-0.995,0-1.995,0.326-2.827,1c-1.929,1.561-2.229,4.4-0.666,6.332  c0.18,0.224,0.145,0.553-0.076,0.733l-0.295,0.237c-0.099,0.078-0.213,0.117-0.328,0.117c-0.151,0-0.303-0.066-0.405-0.193  c-0.889-1.1-2.191-1.67-3.507-1.67c-0.993,0-1.996,0.326-2.828,1.001c-1.93,1.562-2.229,4.401-0.663,6.333  c0.178,0.22,0.146,0.546-0.072,0.727l-1.051,0.877c-0.002,0.002-0.002,0.004-0.006,0.008c-0.095,0.074-0.21,0.115-0.33,0.115  c-0.017,0-0.031-0.001-0.047-0.002c-0.139-0.014-0.267-0.082-0.355-0.191L45.681,97.406c-0.888-1.098-2.191-1.668-3.504-1.668  c-0.995,0-1.997,0.326-2.828,1c-1.931,1.562-2.228,4.4-0.665,6.332l20.774,25.58c0.138,0.17,0.153,0.408,0.045,0.596  c-0.096,0.162-0.271,0.256-0.453,0.256c-0.03,0-0.062-0.002-0.09-0.008l-12-2.113c-0.277-0.051-0.556-0.074-0.833-0.074  c-1.123,0-2.227,0.402-3.174,1.17c-1.142,0.924-1.918,2.271-2.19,3.799c-0.564,3.205,1.295,6.221,4.145,6.725l30.303,5.346  c0.959,0.193,1.642,0.27,2.338,0.27c0.437,0,0.88-0.029,1.402-0.076c2.321-0.213,3.491-1.16,5.11-2.469l17.072-13.816  C106.107,124.228,103.984,117.976,100.34,113.47z"></path>
      <path d="M46.127,124.306c0.455,0,0.913,0.041,1.353,0.119l5.463,0.963l-8.75-10.773H12.138v-69.1h7.519v8.132  c0,10.625,8.083,19.27,18.019,19.27h0.342v15.408c0,1.257,0.784,2.381,1.963,2.815c0.339,0.123,0.689,0.185,1.036,0.185  c0.862,0,1.703-0.372,2.284-1.056l9.398-11.033v21.998l2.727,3.326c0.453-1.309,1.262-2.468,2.365-3.36  c0.488-0.396,1.035-0.701,1.602-0.96V72.916H74.68c9.938,0,18.021-8.646,18.021-19.271V23.323c0-10.625-8.084-19.271-18.021-19.271  H37.674c-9.936,0-18.019,8.646-18.019,19.271V38.46H9.381c-2.172,0-3.94,1.768-3.94,3.94v82.683c0,2.172,1.768,3.939,3.94,3.939  h29.358c0.576-1.111,1.359-2.098,2.326-2.879C42.55,124.941,44.3,124.306,46.127,124.306z M25.655,23.322  c0-7.316,5.392-13.271,12.019-13.271H74.68c6.629,0,12.021,5.953,12.021,13.271v30.322c0,7.318-5.393,13.271-12.021,13.271H59.393  h-2.697c-0.879,0-1.712,0.386-2.283,1.055l-1.714,2.012l-8.682,10.193v-10.26c0-1.657-1.343-3-3-3h-3.342  c-6.627,0-12.019-5.953-12.019-13.27V23.322z M32.39,123.97c-1.177,0-2.13-0.955-2.13-2.133c0-1.176,0.954-2.129,2.13-2.129  c1.176,0,2.13,0.953,2.13,2.129C34.52,123.015,33.565,123.97,32.39,123.97z"></path>
      <path d="M59.969,50.733c-1.024-0.003-0.766,2.238-0.027,3.596H44.982c0.631-0.783,1.23-1.652,1.892-2.65  c0.943-1.424,1.269-3.263,0.972-5.513c-0.144-1.078-0.942-2.165-1.532-3.063c-1.841-2.808-3.846-5.702-3.752-10.185  c0.074-3.546,2.235-6.335,4.288-8.116c4.179-3.626,13.852-3.713,17.466,0.409c1.432,1.632,2.594,4.055,2.793,6.815  c0.121,1.698-0.084,2.157-0.578,3.291c-0.578,1.479,3.59,5.411,2.525,6.408c-0.643,0.627-1.285,0.599-2.021,1.061  c-0.559,0.27,0.094,1.067-0.262,2.385c-0.26,0.969-0.775,1.385-0.932,2.221c-0.115,0.606,0.562,0.769,0.307,1.991  c-0.221,1.044-0.926,1.358-2.068,1.532C62.567,51.143,61.485,50.776,59.969,50.733z"></path>
    </symbol>

    <style type="text/css">
      .prism-fil0 {fill:black;fill-rule:nonzero}
    </style>
    
    <symbol id="Networking" style="shape-rendering:geometricPrecision;text-rendering:geometricPrecision;image-rendering:optimizeQuality;" viewBox="0 0 6.049 8.52575" fill-rule="evenodd" clip-rule="evenodd">
      <title>Networking - Created by Mochammad Kafi from the Noun Project</title>
      <path class="prism-fil0" d="M0.0711 5.1154c-0.1592,-0.2759 -0.0402,-0.6253 0.2497,-0.7514l0 -1.9074c-0.2902,-0.1251 -0.4084,-0.4765 -0.2496,-0.7515 0.1596,-0.2765 0.5214,-0.3479 0.776,-0.1592 0.5507,-0.318 1.1007,-0.6358 1.6514,-0.9537 -0.0367,-0.3146 0.2076,-0.5922 0.526,-0.5922 0.3192,0 0.5618,0.2771 0.526,0.5922 0.5508,0.3179 1.1007,0.6357 1.6514,0.9537 0.254,-0.1889 0.6167,-0.1167 0.776,0.1592 0.1588,0.275 0.0406,0.6264 -0.2496,0.7515l0 1.9074c0.2902,0.125 0.4084,0.4764 0.2496,0.7514 -0.1592,0.2757 -0.5222,0.3485 -0.776,0.1593 -0.5507,0.318 -1.1006,0.6358 -1.6514,0.9537 0.0365,0.3147 -0.2075,0.5922 -0.5261,0.5922 -0.3193,0 -0.5615,-0.2771 -0.5259,-0.5922 -0.5507,-0.3179 -1.1007,-0.6357 -1.6514,-0.9537 -0.2541,0.189 -0.6167,0.1167 -0.7761,-0.1593zm3.2362 -4.1379l0.9335 1.617 0.7786 -0.4495c-0.0509,-0.1495 -0.0339,-0.3101 0.042,-0.4412 -0.5258,-0.3036 -1.0516,-0.6069 -1.5774,-0.9105 -0.043,0.0749 -0.1038,0.1383 -0.1767,0.1842zm0.7538 1.7207l-0.9382 -1.625 0 1.8166c0.1204,0.0226 0.2264,0.0858 0.3032,0.1751l0.635 -0.3667zm0.2779 0.0667l0.9332 1.6167c0.0765,-0.0402 0.1617,-0.0611 0.2482,-0.0608l0 -1.8211c-0.1519,0.0002 -0.3004,-0.065 -0.4027,-0.1843l-0.7787 0.4495zm0.7588 1.7287l-0.9381 -1.6252 -0.6352 0.3667c0.0394,0.1126 0.0396,0.2377 0.0001,0.3503l1.5732 0.9082zm-0.086 0.5082l-1.8888 0 0 0.7687c0.1534,0.029 0.285,0.1248 0.361,0.2568 0.5258,-0.3036 1.0516,-0.6069 1.5774,-0.9105 -0.0211,-0.0364 -0.0378,-0.0749 -0.0496,-0.115zm-1.8888 -0.208l1.8696 0c0.0044,-0.04 0.0131,-0.0795 0.0268,-0.1183l-1.5932 -0.9199c-0.0768,0.0893 -0.1828,0.1526 -0.3032,0.1752l0 0.863zm-0.1967 0.208l-1.8888 0c-0.0119,0.0401 -0.0286,0.0786 -0.0497,0.115 0.5258,0.3037 1.0517,0.607 1.5775,0.9105 0.0758,-0.1317 0.2066,-0.2278 0.361,-0.2568l0 -0.7687zm-1.8697 -0.208l1.8697 0 0 -0.863c-0.1204,-0.0226 -0.2264,-0.0858 -0.3032,-0.1751l-1.5933 0.9199c0.0131,0.0391 0.0222,0.0787 0.0268,0.1182zm-0.2798 -0.4118l0.9334 -1.617 -0.7788 -0.4495c-0.1028,0.1208 -0.2507,0.1847 -0.4026,0.1843l0 1.8211c0.0854,-0.0002 0.1713,0.0209 0.248,0.0611zm1.1126 -1.5135l-0.9382 1.6254 1.5735 -0.9084c-0.0394,-0.1126 -0.0395,-0.2376 -0.0001,-0.3503l-0.6352 -0.3667zm-0.0811 -0.274c0.3112,-0.539 0.6224,-1.0779 0.9336,-1.6169 -0.0907,-0.0545 -0.15,-0.1245 -0.1768,-0.1843 -0.5258,0.3036 -1.0515,0.6069 -1.5773,0.9105 0.0764,0.1314 0.0941,0.2929 0.042,0.4413l0.7785 0.4494zm1.1179 -1.5212l-0.9382 1.625 0.635 0.3667c0.0768,-0.0893 0.1828,-0.1526 0.3032,-0.1752l0 -1.8165zm-2.6748 0.7358c-0.0889,0.1541 -0.0363,0.3505 0.1176,0.4394 0.154,0.0889 0.3506,0.0363 0.4394,-0.1178 0.0889,-0.1539 0.0362,-0.3504 -0.1178,-0.4392 -0.1539,-0.089 -0.3504,-0.0363 -0.4392,0.1176zm2.7731 4.8035c0.1779,0 0.3217,-0.1439 0.3217,-0.3217 0,-0.1776 -0.1438,-0.3217 -0.3217,-0.3216 -0.1778,0 -0.3215,0.144 -0.3215,0.3216 0,0.1778 0.1438,0.3217 0.3215,0.3217zm2.7733 -1.6012c0.0889,-0.154 0.0363,-0.3504 -0.1176,-0.4393 -0.154,-0.0889 -0.3506,-0.0363 -0.4394,0.1177 -0.0889,0.154 -0.0362,0.3505 0.1178,0.4393 0.1539,0.089 0.3504,0.0363 0.4392,-0.1177zm0 -3.2023c-0.0888,-0.1539 -0.2853,-0.2066 -0.4392,-0.1176 -0.154,0.0888 -0.2067,0.2853 -0.1178,0.4392 0.0888,0.1541 0.2854,0.2067 0.4394,0.1178 0.1539,-0.0889 0.2065,-0.2853 0.1176,-0.4394zm-2.7732 -1.6011c-0.1778,0 -0.3216,0.1439 -0.3216,0.3217 0,0.1777 0.1438,0.3216 0.3216,0.3216 0.1778,0 0.3216,-0.1439 0.3216,-0.3216 0,-0.1778 -0.1438,-0.3217 -0.3216,-0.3217zm0 2.8807c-0.1778,0 -0.3216,0.1438 -0.3216,0.3216 0,0.1778 0.1438,0.3216 0.3216,0.3216 0.1778,0 0.3216,-0.1438 0.3216,-0.3216 0,-0.1778 -0.1438,-0.3216 -0.3216,-0.3216zm-2.7733 1.9227c0.0889,0.154 0.2854,0.2067 0.4393,0.1177 0.154,-0.0888 0.2067,-0.2854 0.1178,-0.4393 -0.0889,-0.154 -0.2854,-0.2065 -0.4394,-0.1177 -0.1539,0.0889 -0.2065,0.2853 -0.1177,0.4393z"></path>
    </symbol>
  </defs>
</svg>
