<?xml version="1.0" encoding="UTF-8" standalone="no"?>
<svg xmlns="http://www.w3.org/2000/svg" viewBox="0 0 86.843345 84.664048" version="1.1">
  <g transform="translate(-2.3856663,0.18495281)">
    <path d="M 4.5700932,-0.18495281 C 3.3642158,-0.18489091 2.3865944,0.79249893 2.386247,1.9983763 V 4.2778236 H 2.468412 C 2.4503193,4.3999174 2.438957,4.5251339 2.438957,4.6555785 V 40.270459 c 0,0.643467 0.2201582,1.185474 0.6604249,1.62574 0.4402666,0.440267 0.9822738,0.660424 1.6257404,0.660424 0.6434667,0 1.1854739,-0.220157 1.6257405,-0.660424 0.4741333,-0.440266 0.7110677,-0.982273 0.7110677,-1.62574 v -1.32085 c 2.4722667,2.573867 5.3678725,3.860747 8.6868085,3.860747 2.099734,0 4.081156,-0.524716 5.943823,-1.57458 1.896533,-1.083736 3.420348,-2.641619 4.571814,-4.673619 1.185334,-2.065867 1.778186,-4.470826 1.778186,-7.214028 0,-2.7432 -0.592852,-5.130353 -1.778186,-7.162353 -1.151466,-2.065867 -2.675281,-3.623752 -4.571814,-4.673619 -1.862667,-1.083733 -3.844089,-1.62574 -5.943823,-1.62574 -3.318936,0 -6.2145418,1.286881 -8.6868085,3.860747 V 4.6555785 c 0,-0.1649098 -0.013693,-0.3224993 -0.039791,-0.4733563 H 84.861834 V 80.111954 c -25.173077,-0.0155 -55.108852,0.02246 -80.2819224,-0.0021 0,0 -2.2355275,0.05591 -2.1936646,2.185913 3.439e-4,1.205876 0.977969,2.183268 2.1838462,2.183329 H 87.045162 c 1.205878,-6.1e-5 2.1835,-0.977453 2.183847,-2.183329 V 1.9983763 C 89.228744,0.79249863 88.25104,-0.18489141 87.045162,-0.18495281 Z M 15.088314,20.204499 c 2.506132,0 4.521109,0.795719 6.045109,2.387452 1.524,1.591733 2.286164,3.843644 2.286164,6.756178 0,2.912536 -0.762164,5.16496 -2.286164,6.756693 -1.524,1.591733 -3.538977,2.387449 -6.045109,2.387449 -1.557869,0 -3.030835,-0.338624 -4.419368,-1.015957 -1.3546671,-0.7112 -2.5571488,-1.642679 -3.6070155,-2.794146 V 24.014602 c 1.0498667,-1.151466 2.2523484,-2.066168 3.6070155,-2.743501 1.388533,-0.7112 2.861499,-1.066602 4.419368,-1.066602 z" />
    <path d="m 36.772799,42.556378 q -0.9652,0 -1.6256,-0.6604 -0.6604,-0.6604 -0.6604,-1.6256 V 18.477176 q 0,-0.9652 0.6604,-1.6256 0.6604,-0.7112 1.6256,-0.7112 0.9652,0 1.6256,0.7112 0.7112,0.6604 0.7112,1.6256 v 2.0828 q 1.4224,-2.032 3.4036,-3.3528 2.032,-1.3208 5.2324,-1.3208 2.8448,0 4.8768,1.524 2.032,1.524 2.8956,3.7084 3.1496,-5.2324 9.3472,-5.2324 2.8448,0 4.7244,1.4224 1.9304,1.4224 2.8448,3.6576 0.9144,2.235199 0.9144,4.673599 v 14.630403 q 0,0.9652 -0.7112,1.6256 -0.6604,0.6604 -1.6256,0.6604 -0.9652,0 -1.6256,-0.6604 -0.6604,-0.6604 -0.6604,-1.6256 V 26.554375 q 0,-3.302 -1.1684,-4.826 -1.1684,-1.574799 -4.0132,-1.574799 -2.5908,0 -4.318,1.3716 -1.6764,1.320799 -2.9972,3.505199 v 15.240003 q 0,0.9652 -0.7112,1.6256 -0.6604,0.6604 -1.6256,0.6604 -0.9652,0 -1.6256,-0.6604 -0.6604,-0.6604 -0.6604,-1.6256 V 26.554375 q 0,-3.302 -1.1684,-4.826 -1.1684,-1.574799 -4.0132,-1.574799 -2.5908,0 -4.318,1.3716 -1.6764,1.320799 -2.9972,3.505199 v 15.240003 q 0,0.9652 -0.7112,1.6256 -0.6604,0.6604 -1.6256,0.6604 z" />
    <path d="m 4.3085463,49.695207 c -0.5003975,0 -0.9623139,0.151222 -1.3280843,0.449066 -0.3632328,0.280319 -0.5937622,0.692005 -0.5937622,1.134817 V 66.9572 c 0,0.445831 0.2303021,0.862171 0.5978963,1.142566 0.3675936,0.2804 0.825999,0.418063 1.3239502,0.418063 h 6.8047527 c 2.617701,0 4.858492,-0.438759 6.709151,-1.332217 1.855925,-0.902499 3.274214,-2.07664 4.222481,-3.5233 0.939538,-1.433343 1.418001,-2.962698 1.418001,-4.556829 0,-1.594127 -0.478463,-3.123483 -1.418001,-4.556826 C 21.09696,53.10245 19.6789,51.937794 17.824,51.052747 c -1.851226,-0.911609 -4.092114,-1.35754 -6.710701,-1.35754 z m 1.9533692,2.988447 h 4.4803465 c 1.80923,0 3.380582,0.286076 4.722709,0.847492 h 0.0021 l 0.0016,0.0021 c 1.345341,0.546211 2.361008,1.303279 3.080432,2.271694 h 0.0016 v 0.0016 c 0.716812,0.948822 1.072286,2.031518 1.072286,3.299023 0,1.267505 -0.355412,2.360893 -1.073836,3.327963 -0.718819,0.950585 -1.735574,1.708426 -3.080432,2.271697 C 14.12552,65.250521 12.552741,65.5274 10.74228,65.5274 H 6.2619155 Z" />
    <path d="m 30.541053,49.712775 c -0.498198,0 -0.957832,0.151466 -1.322398,0.447519 -0.364512,0.279675 -0.593764,0.691502 -0.593764,1.134814 v 15.63057 c 0,0.444825 0.229139,0.859239 0.59583,1.138949 0.366691,0.279709 0.823698,0.415996 1.320332,0.415996 H 44.07821 c 0.46859,0 0.899075,-0.127315 1.243854,-0.387056 0.365419,-0.259914 0.603581,-0.659585 0.603581,-1.091406 0,-0.428803 -0.238393,-0.824127 -0.599448,-1.084173 -0.34303,-0.277315 -0.776653,-0.420129 -1.247987,-0.420129 H 32.490288 v -4.921663 h 10.373011 c 0.468791,0 0.897448,-0.128635 1.242301,-0.388607 0.365887,-0.259897 0.605131,-0.657711 0.605131,-1.089855 0,-0.4288 -0.238395,-0.824124 -0.599448,-1.084173 -0.34303,-0.277315 -0.77665,-0.419613 -1.247984,-0.419613 H 32.490288 V 52.695539 H 44.07821 c 0.467918,0 0.897771,-0.126007 1.242303,-0.38499 0.36675,-0.259863 0.605132,-0.661249 0.605132,-1.093988 0,-0.429715 -0.239144,-0.823643 -0.601515,-1.083657 -0.34281,-0.276526 -0.775247,-0.420129 -1.24592,-0.420129 z" />
    <path d="m 52.789307,49.55258 c -0.529104,0 -0.996554,0.131512 -1.351855,0.422196 -0.352623,0.272698 -0.554487,0.69813 -0.554487,1.152385 0,0.211354 0.04746,0.419902 0.140557,0.609264 l 0.0036,0.0057 8.293034,15.341698 0.0041,0.0078 c 0.528085,0.882365 1.389881,1.369423 2.420009,1.369425 h 0.737939 c 1.030129,0 1.893988,-0.48706 2.422075,-1.369425 l 0.0036,-0.0078 8.293034,-15.341698 0.0041,-0.0057 c 0.0931,-0.189362 0.14056,-0.39791 0.14056,-0.609264 0,-0.454255 -0.201864,-0.879687 -0.554487,-1.152385 -0.355301,-0.290684 -0.822751,-0.422198 -1.351857,-0.422196 -0.375864,0 -0.739801,0.09504 -1.064532,0.27957 -0.305123,0.169267 -0.555398,0.413697 -0.724504,0.714684 l -0.0021,0.0057 -7.534939,14.330391 -7.533392,-14.330391 -0.0016,-0.0057 C 54.406813,50.24168 54.13865,50.002399 53.816554,49.835767 53.510725,49.650029 53.159461,49.55258 52.789225,49.55258 Z" />
  </g>
</svg>
